<?xml version="1.0" encoding="UTF-8" standalone="no"?><!-- Generator: Adobe Illustrator 19.0.0, SVG Export Plug-In . SVG Version: 6.00 Build 0)  -->

<svg
   xmlns:dc="http://purl.org/dc/elements/1.1/"
   xmlns:cc="http://creativecommons.org/ns#"
   xmlns:rdf="http://www.w3.org/1999/02/22-rdf-syntax-ns#"
   xmlns="http://www.w3.org/2000/svg"
   xmlns:sodipodi="http://sodipodi.sourceforge.net/DTD/sodipodi-0.dtd"
   xmlns:inkscape="http://www.inkscape.org/namespaces/inkscape"
   version="1.1"
   id="Capa_1"
   x="0px"
   y="0px"
   viewBox="0 0 479 479"
   style="enable-background:new 0 0 479 479;"
   xml:space="preserve"
   sodipodi:docname="jupiter-svgrepo-com (1).svg"
   inkscape:version="0.92.4 (unknown)"><metadata
   id="metadata43"><rdf:RDF><cc:Work
       rdf:about=""><dc:format>image/svg+xml</dc:format><dc:type
         rdf:resource="http://purl.org/dc/dcmitype/StillImage" /></cc:Work></rdf:RDF></metadata><defs
   id="defs41" /><sodipodi:namedview
   pagecolor="#ffffff"
   bordercolor="#666666"
   borderopacity="1"
   objecttolerance="10"
   gridtolerance="10"
   guidetolerance="10"
   inkscape:pageopacity="0"
   inkscape:pageshadow="2"
   inkscape:window-width="1920"
   inkscape:window-height="1016"
   id="namedview39"
   showgrid="false"
   inkscape:zoom="0.98538622"
   inkscape:cx="76.663999"
   inkscape:cy="299.23024"
   inkscape:window-x="0"
   inkscape:window-y="27"
   inkscape:window-maximized="1"
   inkscape:current-layer="Capa_1" />

<g
   id="g8"
   transform="translate(527.71186,-79.15678)">
</g>
<g
   id="g10"
   transform="translate(527.71186,-79.15678)">
</g>
<g
   id="g12"
   transform="translate(527.71186,-79.15678)">
</g>
<g
   id="g14"
   transform="translate(527.71186,-79.15678)">
</g>
<g
   id="g16"
   transform="translate(527.71186,-79.15678)">
</g>
<g
   id="g18"
   transform="translate(527.71186,-79.15678)">
</g>
<g
   id="g20"
   transform="translate(527.71186,-79.15678)">
</g>
<g
   id="g22"
   transform="translate(527.71186,-79.15678)">
</g>
<g
   id="g24"
   transform="translate(527.71186,-79.15678)">
</g>
<g
   id="g26"
   transform="translate(527.71186,-79.15678)">
</g>
<g
   id="g28"
   transform="translate(527.71186,-79.15678)">
</g>
<g
   id="g30"
   transform="translate(527.71186,-79.15678)">
</g>
<g
   id="g32"
   transform="translate(527.71186,-79.15678)">
</g>
<g
   id="g34"
   transform="translate(527.71186,-79.15678)">
</g>
<g
   id="g36"
   transform="translate(527.71186,-79.15678)">
</g>
<circle
   style="fill:#2196f3;stroke-width:1.05131876;fill-opacity:1"
   id="path71"
   cx="239.5"
   cy="239.5"
   r="239.5" /><g
   id="g6"
   style="fill:#ffffff">
	<path
   d="M 408.852,408.852 C 454.088,363.617 479,303.473 479,239.5 479,175.527 454.088,115.383 408.852,70.148 363.617,24.913 303.473,0 239.5,0 175.527,0 115.384,24.913 70.148,70.148 24.913,115.384 0,175.527 0,239.5 c 0,63.973 24.913,124.116 70.148,169.352 2.313,2.313 4.674,4.558 7.063,6.763 0.203,0.213 0.42,0.413 0.648,0.603 C 122.11,456.778 179.094,479 239.5,479 c 60.427,0 117.43,-22.238 161.687,-62.825 0.116,-0.098 0.222,-0.204 0.331,-0.308 2.483,-2.285 4.934,-4.615 7.334,-7.015 z M 22.504,181.633 c 29.82,23.324 87.499,40.543 158.442,46.827 0.059,0.005 0.118,0.004 0.177,0.008 25.391,1.725 41.459,8.577 55.635,14.622 12.217,5.21 23.836,10.166 38.339,10.166 1.978,0 4.01,-0.092 6.104,-0.289 4.124,-0.387 7.154,-4.043 6.767,-8.167 -0.387,-4.125 -4.045,-7.156 -8.167,-6.767 -13.659,1.278 -24.03,-3.142 -37.158,-8.74 -14.52,-6.192 -32.591,-13.899 -60.529,-15.792 -0.017,-0.001 -0.033,0 -0.05,-0.001 C 110.754,207.159 52.253,189.123 27.259,166.028 30.721,156 34.896,146.238 39.761,136.803 83.267,160.471 158.615,175 239.5,175 c 80.885,0 156.232,-14.529 199.741,-38.197 4.866,9.439 9.043,19.205 12.506,29.237 -27.309,25.215 -94.514,44.23 -173.718,48.849 -4.135,0.241 -7.292,3.789 -7.051,7.924 0.232,3.987 3.538,7.063 7.48,7.063 0.146,0 0.295,-0.004 0.443,-0.013 78.902,-4.601 144.968,-22.758 177.596,-48.223 4.939,18.647 7.502,38.055 7.502,57.86 0,17.661 -22.925,35.695 -62.896,49.478 C 358.051,303.824 300.659,312 239.5,312 178.341,312 120.949,303.824 77.896,288.978 37.925,275.195 15,257.161 15,239.5 c 0,-19.807 2.563,-39.218 7.504,-57.867 z M 352.899,45.655 C 318.506,52.434 279.707,56 239.5,56 199.294,56 160.496,52.434 126.101,45.654 160.132,25.669 198.993,15 239.5,15 c 40.507,0 79.369,10.67 113.399,30.655 z M 80.754,80.754 C 89.418,72.09 98.673,64.237 108.415,57.201 147.272,66.225 192.495,71 239.5,71 c 47.007,0 92.229,-4.775 131.085,-13.799 9.741,7.036 18.997,14.89 27.66,23.553 6.026,6.026 11.653,12.343 16.896,18.903 -24.788,10.306 -56.793,18.249 -93.34,23.097 -4.106,0.545 -6.993,4.315 -6.449,8.421 0.5,3.771 3.722,6.515 7.426,6.515 0.329,0 0.661,-0.022 0.996,-0.066 39.499,-5.241 74.095,-14.054 100.592,-25.583 2.646,3.82 5.172,7.708 7.565,11.668 C 390.652,146.194 318.032,160 239.5,160 160.968,160 88.348,146.194 47.069,123.71 c 2.393,-3.96 4.92,-7.849 7.566,-11.67 45.232,19.715 112.08,30.96 184.865,30.96 16.11,0 32.207,-0.566 47.842,-1.684 2.953,-0.211 5.885,-0.441 8.796,-0.69 4.127,-0.353 7.186,-3.985 6.833,-8.112 -0.353,-4.126 -3.972,-7.189 -8.112,-6.833 -2.841,0.243 -5.704,0.467 -8.586,0.673 C 270.992,127.446 255.255,128 239.5,128 171.48,128 106.818,117.489 63.852,99.665 69.098,93.102 74.726,86.782 80.754,80.754 Z M 64.391,380.007 c 15.46,5.914 33.315,11.052 52.89,15.171 0.521,0.109 1.04,0.162 1.552,0.162 3.472,0 6.588,-2.425 7.332,-5.957 0.853,-4.054 -1.742,-8.031 -5.795,-8.884 C 90.965,374.312 65.823,365.825 47.458,355.919 39.215,342.378 32.473,328.043 27.309,313.119 67.401,340.93 147.831,359 239.5,359 c 24.883,0 49.39,-1.337 72.84,-3.975 4.116,-0.463 7.078,-4.175 6.615,-8.292 -0.463,-4.116 -4.178,-7.074 -8.292,-6.615 C 287.768,342.694 263.825,344 239.5,344 186.747,344 135.324,337.687 94.703,326.224 56.663,315.488 30.117,301.023 19.681,285.391 c -0.823,-3.985 -1.548,-7.997 -2.156,-12.039 12.372,11.261 31.076,21.392 55.481,29.807 C 117.592,318.533 176.72,327 239.5,327 c 62.78,0 121.909,-8.467 166.494,-23.841 24.405,-8.415 43.109,-18.546 55.481,-29.807 -0.606,4.033 -1.329,8.036 -2.15,12.012 -14.41,21.636 -59.002,40.553 -119.828,50.741 -4.085,0.684 -6.842,4.551 -6.158,8.636 0.614,3.667 3.79,6.262 7.388,6.262 0.412,0 0.829,-0.034 1.248,-0.104 47.964,-8.034 86.028,-21.284 109.701,-37.731 -5.162,14.905 -11.898,29.223 -20.131,42.749 C 390.244,378.196 316.958,392 239.5,392 c -10.157,0 -20.378,-0.231 -30.379,-0.688 -0.041,-0.002 -0.08,0.002 -0.12,0 -0.053,-0.004 -0.104,-0.013 -0.157,-0.016 -15.241,-0.773 -26.173,-6.917 -38.832,-14.031 -11.674,-6.561 -24.907,-13.997 -43.391,-18.088 -4.047,-0.896 -8.048,1.658 -8.943,5.702 -0.895,4.044 1.658,8.048 5.702,8.943 16.314,3.611 27.991,10.173 39.283,16.52 13.711,7.706 26.662,14.984 45.421,15.935 0.069,0.004 0.136,0.004 0.205,0.005 0.05,0.003 0.099,0.012 0.149,0.014 10.227,0.468 20.678,0.704 31.062,0.704 67.652,0 130.554,-9.869 175.076,-26.952 -5.083,6.307 -10.521,12.388 -16.331,18.197 -1.892,1.892 -3.822,3.733 -5.769,5.549 C 350.519,416.828 296.287,424 239.5,424 c -56.788,0 -111.019,-7.173 -152.977,-20.206 -1.947,-1.816 -3.877,-3.656 -5.769,-5.549 -5.821,-5.821 -11.271,-11.916 -16.363,-18.238 z m 51.273,46.824 C 152.642,434.748 195.371,439 239.5,439 c 44.129,0 86.858,-4.252 123.836,-12.169 C 326.921,451.011 284.21,464 239.5,464 194.79,464 152.079,451.011 115.664,426.831 Z"
   id="path2"
   inkscape:connector-curvature="0"
   style="fill:#ffffff" />
	<path
   d="m 311.498,250.458 c 0.28,0 0.563,-0.016 0.848,-0.047 5.452,-0.613 10.904,-1.305 16.207,-2.055 4.101,-0.581 6.956,-4.376 6.375,-8.477 -0.581,-4.101 -4.374,-6.959 -8.477,-6.375 -5.162,0.73 -10.472,1.404 -15.782,2.001 -4.116,0.463 -7.078,4.175 -6.615,8.292 0.431,3.83 3.677,6.661 7.444,6.661 z"
   id="path4"
   inkscape:connector-curvature="0"
   style="fill:#ffffff" />
</g><ellipse
   style="fill:none;fill-opacity:1;stroke:#1976d2;stroke-width:15.48282909;stroke-miterlimit:4;stroke-dasharray:none;stroke-opacity:1"
   id="path71-6"
   cx="239.5"
   cy="239.5"
   rx="231.75858"
   ry="231.75859" /></svg>